<svg xmlns="http://www.w3.org/2000/svg" width="1280" height="1600" fill="none"><path fill="#FEF3E4" d="M67.839 379.697c13.578 76.931-37.717 70.708-65.061 57.981v944.662c0 184.6-13 104.6 0 156.6 7.89 31.56 50.917-121.25 39.602-156.6-11.315-35.36-8.486-101.82 41.017-115.96 49.502-14.15 56.574-46.67 82.033-87.68 25.458-41.01 90.519-121.62 248.928-59.4 158.409 62.23 263.072 5.66 338.033-50.91 148.508-112.062 400.389.55 470.389 96.55 36.73 50.38-63.48 307.99 0 332 31.71 12 60 232.57 60-12V364.141c-.95 10.371-7.92 28.001-28.29 15.556-59.97-30.545-35.36-123.975-15.56-166.871 10.85-41.011 14.43-137.174-57.99-193.74-85.16-66.526-335.775 62.223-481.162 62.223-158.84 0-235.917-36.768-330.68-70.708-94.762-33.94-169.724 24.04-199.425 70.708-29.702 46.667-31.116 65.051-76.376 86.264-89.105 32.526-42.43 115.961-25.458 212.124Z"/></svg>