<svg width="1280" height="1600" viewBox="0 0 1280 1600" fill="none" xmlns="http://www.w3.org/2000/svg">
<path d="M64.8386 379.697C78.4165 456.628 27.1222 450.405 -0.222223 437.678V1382.34C-0.222214 1566.94 -13.2222 1486.94 -0.222219 1538.94C7.66757 1570.5 50.6949 1417.69 39.38 1382.34C28.0651 1346.98 30.8939 1280.52 80.3966 1266.38C129.899 1252.23 136.971 1219.71 162.43 1178.7C187.888 1137.69 252.949 1057.08 411.358 1119.3C569.767 1181.53 674.43 1124.96 749.391 1068.39C897.899 956.328 1149.78 1068.94 1219.78 1164.94C1256.51 1215.32 1156.3 1472.93 1219.78 1496.94C1251.49 1508.94 1279.78 1729.51 1279.78 1484.94V364.141C1278.83 374.512 1271.86 392.142 1251.49 379.697C1191.52 349.152 1216.13 255.722 1235.93 212.826C1246.78 171.815 1250.36 75.6522 1177.94 19.0858C1092.78 -47.4404 842.165 81.3093 696.778 81.3091C537.938 81.3089 460.861 44.5408 366.098 10.6009C271.336 -23.3389 196.374 34.6417 166.673 81.309C136.971 127.976 135.557 146.36 90.2972 167.573C1.1922 200.099 47.8662 283.534 64.8386 379.697Z" fill="#FEF3E4"/>
</svg>
