<svg width="9" height="15" viewBox="0 0 9 15" fill="none" xmlns="http://www.w3.org/2000/svg">
<path d="M8.69915 0.003121L6.75399 0C4.56866 0 3.15641 1.44892 3.15641 3.69152V5.39356H1.20063C1.03163 5.39356 0.894775 5.53057 0.894775 5.69957V8.16563C0.894775 8.33463 1.03179 8.47149 1.20063 8.47149H3.15641V14.6941C3.15641 14.8631 3.29326 15 3.46227 15H6.014C6.183 15 6.31986 14.863 6.31986 14.6941V8.47149H8.60661C8.77562 8.47149 8.91247 8.33463 8.91247 8.16563L8.91341 5.69957C8.91341 5.61843 8.88111 5.54071 8.82383 5.48329C8.76656 5.42586 8.68854 5.39356 8.60739 5.39356H6.31986V3.95072C6.31986 3.25723 6.48511 2.90518 7.38849 2.90518L8.69884 2.90472C8.86768 2.90472 9.00454 2.7677 9.00454 2.59886V0.308979C9.00454 0.140289 8.86784 0.0034331 8.69915 0.003121Z" fill="#2E2520"/>
</svg>
