<svg width="16" height="15" viewBox="0 0 16 15" fill="none" xmlns="http://www.w3.org/2000/svg">
<path d="M8.06906 15C8.01939 15 7.96972 15 7.91971 14.9998C6.7439 15.0026 5.65747 14.9728 4.60091 14.9084C3.63225 14.8495 2.74804 14.5148 2.04375 13.9405C1.36417 13.3864 0.900096 12.6371 0.664453 11.7138C0.459367 10.91 0.448495 10.1209 0.43808 9.3577C0.430527 8.8101 0.422745 8.16122 0.421143 7.50135C0.422745 6.83874 0.430527 6.18986 0.43808 5.64225C0.448495 4.87916 0.459367 4.09009 0.664453 3.28614C0.900096 2.36283 1.36417 1.61358 2.04375 1.05945C2.74804 0.485189 3.63225 0.150448 4.60103 0.0915109C5.65759 0.0273094 6.74424 -0.00267423 7.92257 0.000186801C9.09873 -0.00233091 10.1848 0.0273094 11.2414 0.0915109C12.21 0.150448 13.0942 0.485189 13.7985 1.05945C14.4782 1.61358 14.9422 2.36283 15.1778 3.28614C15.3829 4.08997 15.3938 4.87916 15.4042 5.64225C15.4118 6.18986 15.4197 6.83874 15.4211 7.49861V7.50135C15.4197 8.16122 15.4118 8.8101 15.4042 9.3577C15.3938 10.1208 15.383 10.9099 15.1778 11.7138C14.9422 12.6371 14.4782 13.3864 13.7985 13.9405C13.0942 14.5148 12.21 14.8495 11.2414 14.9084C10.2296 14.97 9.19017 15 8.06906 15ZM7.91971 13.8279C9.07641 13.8306 10.1385 13.8015 11.1702 13.7387C11.9026 13.6942 12.5377 13.4565 13.058 13.0323C13.5389 12.6401 13.8701 12.099 14.0423 11.4241C14.2131 10.7549 14.2229 10.0365 14.2324 9.34168C14.2398 8.79774 14.2476 8.15344 14.2492 7.49998C14.2476 6.84641 14.2398 6.20222 14.2324 5.65828C14.2229 4.9635 14.2131 4.24504 14.0423 3.57579C13.8701 2.90081 13.5389 2.35974 13.058 1.96755C12.5377 1.54343 11.9026 1.30573 11.1702 1.26121C10.1385 1.19839 9.07641 1.16943 7.92246 1.17195C6.76599 1.1692 5.70382 1.19839 4.6721 1.26121C3.93965 1.30573 3.30459 1.54343 2.78432 1.96755C2.30342 2.35974 1.97222 2.90081 1.79998 3.57579C1.62923 4.24504 1.61938 4.96339 1.60989 5.65828C1.60245 6.20267 1.59466 6.84732 1.59306 7.50135C1.59466 8.15252 1.60245 8.79729 1.60989 9.34168C1.61938 10.0365 1.62923 10.7549 1.79998 11.4241C1.97222 12.099 2.30342 12.6401 2.78432 13.0323C3.30459 13.4564 3.93965 13.6941 4.6721 13.7386C5.70382 13.8015 6.76622 13.8308 7.91971 13.8279ZM7.89179 11.1621C5.87251 11.1621 4.22954 9.51929 4.22954 7.49998C4.22954 5.48066 5.87251 3.83786 7.89179 3.83786C9.91117 3.83786 11.554 5.48066 11.554 7.49998C11.554 9.51929 9.91117 11.1621 7.89179 11.1621ZM7.89179 5.00974C6.51867 5.00974 5.40146 6.12691 5.40146 7.49998C5.40146 8.87304 6.51867 9.99022 7.89179 9.99022C9.26502 9.99022 10.3821 8.87304 10.3821 7.49998C10.3821 6.12691 9.26502 5.00974 7.89179 5.00974ZM11.9642 2.66598C11.4788 2.66598 11.0853 3.05943 11.0853 3.54489C11.0853 4.03035 11.4788 4.4238 11.9642 4.4238C12.4497 4.4238 12.8431 4.03035 12.8431 3.54489C12.8431 3.05943 12.4497 2.66598 11.9642 2.66598Z" fill="#2E2520"/>
</svg>
