<svg aria-hidden="true" style="position: absolute; width: 0; height: 0; overflow: hidden;" version="1.1" xmlns="http://www.w3.org/2000/svg" xmlns:xlink="http://www.w3.org/1999/xlink">
<defs>
<symbol id="icon-twitter" viewBox="0 0 32 32">
<path d="M24.325 3h4.411l-9.636 11.013 11.336 14.987h-8.876l-6.952-9.089-7.955 9.089h-4.413l10.307-11.78-10.875-14.22h9.101l6.284 8.308zM22.777 26.36h2.444l-15.776-20.859h-2.623z"></path>
</symbol>
<symbol id="icon-burger" viewBox="0 0 60 32">
<path d="M2 0h56c1.105 0 2 0.895 2 2s-0.895 2-2 2h-56c-1.105 0-2-0.895-2-2s0.895-2 2-2z"></path>
<path d="M2 14h56c1.105 0 2 0.895 2 2s-0.895 2-2 2h-56c-1.105 0-2-0.895-2-2s0.895-2 2-2z"></path>
<path d="M2 28h56c1.105 0 2 0.895 2 2s-0.895 2-2 2h-56c-1.105 0-2-0.895-2-2s0.895-2 2-2z"></path>
</symbol>
<symbol id="icon-chat" viewBox="0 0 46 32">
<path fill="#674d40" style="fill: var(--color1, #674d40)" d="M35.37 13.998c0-8.062-8.498-13.347-16.983-13.347-8.518 0-16.983 5.309-16.983 13.347 0 3.041 1.332 6.014 3.75 8.373 0.093 0.090 0.128 0.227 0.092 0.358-0.76 2.783-2.559 5.296-3.297 6.248-0.23 0.296-0.267 0.687-0.098 1.022 0.165 0.327 0.492 0.527 0.856 0.527 0.008 0 0.016 0 0.025-0 3.612-0.090 7.799-1.11 10.387-3.654 0.090-0.089 0.22-0.124 0.347-0.094 1.59 0.377 3.246 0.568 4.92 0.568 8.516-0 16.983-5.307 16.983-13.347zM13.765 25.518c-0.562-0.134-1.143 0.027-1.552 0.43-2.588 2.545-6.814 3.123-8.815 3.252 0.914-1.262 2.4-3.578 3.096-6.131 0.159-0.583-0.008-1.206-0.437-1.624-2.198-2.143-3.36-4.719-3.36-7.447 0-6.646 7.038-12.053 15.69-12.053s15.69 5.407 15.69 12.053c0 6.646-7.038 12.053-15.69 12.053-1.574 0-3.129-0.18-4.622-0.533z"></path>
<path fill="#674d40" style="fill: var(--color1, #674d40)" d="M39.529 24.743c3.77-1.905 6.021-5.153 6.021-8.687 0-4.995-4.515-9.263-10.736-10.149-0.353-0.050-0.681 0.195-0.731 0.549s0.196 0.681 0.549 0.731c5.577 0.794 9.625 4.524 9.625 8.868 0 3.036-1.986 5.852-5.311 7.533-0.647 0.327-0.993 1.049-0.843 1.757 0.315 1.482 0.987 2.854 1.524 3.784-3.819-0.636-5.266-2.468-5.724-3.261-0.282-0.49-0.811-0.793-1.381-0.793-0.002 0-0.003 0-0.005 0h-0.047c-0.717 0-1.435-0.050-2.134-0.148-0.353-0.050-0.681 0.197-0.73 0.55s0.197 0.681 0.551 0.73c0.758 0.107 1.537 0.161 2.314 0.161h0.053c0.108 0 0.207 0.056 0.26 0.146 1.751 3.035 5.778 3.81 7.427 4.003 0.364 0.042 0.711-0.124 0.906-0.436s0.191-0.695-0.007-1.004c-0.497-0.774-1.384-2.323-1.741-4.002-0.029-0.134 0.038-0.272 0.161-0.334z"></path>
<path fill="#674d40" style="fill: var(--color1, #674d40)" d="M8.324 11.685c-1.236 0-2.241 1.005-2.241 2.241s1.005 2.241 2.241 2.241c1.236 0 2.241-1.005 2.241-2.241s-1.005-2.241-2.241-2.241zM8.324 14.874c-0.523 0-0.948-0.425-0.948-0.948s0.425-0.948 0.948-0.948c0.523 0 0.948 0.425 0.948 0.948s-0.425 0.948-0.948 0.948z"></path>
<path fill="#674d40" style="fill: var(--color1, #674d40)" d="M14.718 11.685c-1.236 0-2.241 1.005-2.241 2.241s1.005 2.241 2.241 2.241c1.236 0 2.241-1.005 2.241-2.241s-1.005-2.241-2.241-2.241zM14.718 14.874c-0.523 0-0.948-0.425-0.948-0.948s0.425-0.948 0.948-0.948c0.523 0 0.948 0.425 0.948 0.948s-0.425 0.948-0.948 0.948z"></path>
<path fill="#674d40" style="fill: var(--color1, #674d40)" d="M21.111 11.685c-1.236 0-2.241 1.005-2.241 2.241s1.005 2.241 2.241 2.241c1.236 0 2.241-1.005 2.241-2.241s-1.005-2.241-2.241-2.241zM21.111 14.874c-0.523 0-0.948-0.425-0.948-0.948s0.425-0.948 0.948-0.948c0.523 0 0.948 0.425 0.948 0.948s-0.425 0.948-0.948 0.948z"></path>
<path fill="#674d40" style="fill: var(--color1, #674d40)" d="M27.505 11.685c-1.236 0-2.241 1.005-2.241 2.241s1.006 2.241 2.241 2.241c1.236 0 2.241-1.005 2.241-2.241s-1.005-2.241-2.241-2.241zM27.505 14.874c-0.523 0-0.948-0.425-0.948-0.948s0.425-0.948 0.948-0.948c0.523 0 0.948 0.425 0.948 0.948s-0.425 0.948-0.948 0.948z"></path>
</symbol>
<symbol id="icon-chef-hat" viewBox="0 0 35 32">
<path fill="#674d40" style="fill: var(--color1, #674d40)" d="M25.172 8.292c-0.124 0-0.243-0.049-0.33-0.137s-0.137-0.207-0.137-0.33c-0.036-1.79-0.773-3.495-2.052-4.749s-2.999-1.956-4.789-1.956c-1.791 0-3.51 0.702-4.789 1.956s-2.016 2.958-2.052 4.749c0 0.124-0.049 0.243-0.137 0.33s-0.207 0.137-0.33 0.137c-0.124 0-0.243-0.049-0.33-0.137s-0.137-0.207-0.137-0.33c0.032-2.041 0.865-3.989 2.32-5.421s3.415-2.235 5.456-2.235c2.042 0 4.002 0.803 5.456 2.235s2.288 3.38 2.32 5.421c0 0.124-0.049 0.243-0.137 0.33s-0.206 0.137-0.33 0.137z"></path>
<path fill="#674d40" style="fill: var(--color1, #674d40)" d="M26.536 18.868c-0.124 0.001-0.243-0.048-0.331-0.135s-0.138-0.206-0.139-0.33 0.048-0.243 0.135-0.331c0.087-0.088 0.206-0.138 0.33-0.139 1.78-0.010 3.484-0.719 4.747-1.973s1.984-2.954 2.007-4.733c-0.018-1.797-0.747-3.514-2.029-4.774s-3.011-1.96-4.808-1.947c-0.69-0.001-1.376 0.101-2.036 0.302-0.118 0.034-0.245 0.021-0.352-0.038s-0.189-0.157-0.225-0.274c-0.036-0.117-0.024-0.244 0.032-0.353s0.154-0.191 0.271-0.229c0.749-0.228 1.527-0.344 2.31-0.343 2.045-0.013 4.012 0.786 5.469 2.221s2.285 3.389 2.303 5.434c-0.024 2.025-0.842 3.961-2.277 5.389s-3.375 2.237-5.4 2.252h-0.006z"></path>
<path fill="#674d40" style="fill: var(--color1, #674d40)" d="M9.188 18.868h-0.006c-2.026-0.014-3.965-0.823-5.4-2.252s-2.253-3.364-2.277-5.389c0.018-2.045 0.846-3.999 2.303-5.434s3.424-2.234 5.469-2.221c0.783-0.001 1.561 0.115 2.31 0.343 0.059 0.017 0.115 0.046 0.163 0.085s0.088 0.087 0.118 0.142c0.029 0.054 0.048 0.114 0.054 0.176s-0 0.124-0.018 0.183c-0.018 0.059-0.048 0.114-0.088 0.162s-0.088 0.087-0.143 0.116c-0.055 0.029-0.115 0.046-0.177 0.051s-0.124-0.002-0.183-0.021c-0.66-0.201-1.346-0.303-2.036-0.302-1.797-0.013-3.526 0.687-4.808 1.947s-2.011 2.977-2.029 4.774c0.023 1.78 0.744 3.479 2.007 4.733s2.968 1.963 4.747 1.973c0.061 0 0.122 0.013 0.179 0.037s0.108 0.059 0.151 0.102c0.043 0.044 0.077 0.096 0.1 0.152s0.035 0.118 0.034 0.179c-0 0.061-0.013 0.122-0.037 0.179s-0.059 0.108-0.102 0.151c-0.044 0.043-0.095 0.077-0.152 0.1s-0.118 0.035-0.179 0.035z"></path>
<path fill="#674d40" style="fill: var(--color1, #674d40)" d="M26.536 30.495h-17.348c-0.124 0-0.243-0.049-0.33-0.137s-0.137-0.206-0.137-0.33v-11.626c0-0.124 0.049-0.243 0.137-0.33s0.207-0.137 0.33-0.137c0.124 0 0.243 0.049 0.33 0.137s0.137 0.206 0.137 0.33v11.158h16.413v-11.158c0-0.124 0.049-0.243 0.137-0.33s0.206-0.137 0.33-0.137 0.243 0.049 0.33 0.137c0.088 0.088 0.137 0.206 0.137 0.33v11.626c0 0.124-0.049 0.243-0.137 0.33s-0.206 0.137-0.33 0.137z"></path>
<path fill="#674d40" style="fill: var(--color1, #674d40)" d="M29.788 25.966h-17.348c-0.124 0-0.243-0.049-0.33-0.137s-0.137-0.206-0.137-0.33c0-0.124 0.049-0.243 0.137-0.33s0.207-0.137 0.33-0.137h17.348c0.124 0 0.243 0.049 0.33 0.137s0.137 0.206 0.137 0.33-0.049 0.243-0.137 0.33c-0.088 0.088-0.206 0.137-0.33 0.137z"></path>
</symbol>
<symbol id="icon-clock" viewBox="0 0 34 32">
<path fill="#674d40" style="fill: var(--color1, #674d40)" d="M16.631 0.249c-8.7 0-15.778 7.078-15.778 15.778s7.078 15.778 15.778 15.778c8.7 0 15.778-7.078 15.778-15.778s-7.078-15.778-15.778-15.778zM16.631 30.752c-8.12 0-14.726-6.606-14.726-14.726s6.606-14.726 14.726-14.726c8.12 0 14.726 6.606 14.726 14.726s-6.606 14.726-14.726 14.726z"></path>
<path fill="#674d40" style="fill: var(--color1, #674d40)" d="M17.157 13.934v-5.334c0-0.291-0.236-0.526-0.526-0.526s-0.526 0.235-0.526 0.526v5.334c-0.736 0.191-1.312 0.767-1.503 1.503h-3.756c-0.29 0-0.526 0.235-0.526 0.526s0.236 0.526 0.526 0.526h3.756c0.235 0.905 1.052 1.578 2.029 1.578 1.16 0 2.104-0.944 2.104-2.104 0-0.978-0.673-1.794-1.578-2.029zM16.631 17.015c-0.58 0-1.052-0.472-1.052-1.052s0.472-1.052 1.052-1.052c0.58 0 1.052 0.472 1.052 1.052s-0.472 1.052-1.052 1.052z"></path>
<path fill="#674d40" style="fill: var(--color1, #674d40)" d="M16.631 5.445c0.29 0 0.526-0.235 0.526-0.526v-0.526c0-0.291-0.236-0.526-0.526-0.526s-0.526 0.235-0.526 0.526v0.526c0 0.291 0.236 0.526 0.526 0.526z"></path>
<path fill="#674d40" style="fill: var(--color1, #674d40)" d="M16.631 26.482c-0.29 0-0.526 0.235-0.526 0.526v0.526c0 0.291 0.236 0.526 0.526 0.526s0.526-0.235 0.526-0.526v-0.526c0-0.291-0.236-0.526-0.526-0.526z"></path>
<path fill="#674d40" style="fill: var(--color1, #674d40)" d="M28.201 15.437h-0.526c-0.29 0-0.526 0.235-0.526 0.526s0.236 0.526 0.526 0.526h0.526c0.29 0 0.526-0.235 0.526-0.526s-0.236-0.526-0.526-0.526z"></path>
<path fill="#674d40" style="fill: var(--color1, #674d40)" d="M5.587 15.437h-0.526c-0.29 0-0.526 0.235-0.526 0.526s0.236 0.526 0.526 0.526h0.526c0.29 0 0.526-0.235 0.526-0.526s-0.236-0.526-0.526-0.526z"></path>
<path fill="#674d40" style="fill: var(--color1, #674d40)" d="M24.441 7.41l-0.372 0.372c-0.206 0.206-0.206 0.538 0 0.744 0.103 0.103 0.237 0.154 0.372 0.154s0.269-0.052 0.372-0.154l0.372-0.372c0.206-0.206 0.206-0.538 0-0.744s-0.538-0.205-0.744 0z"></path>
<path fill="#674d40" style="fill: var(--color1, #674d40)" d="M8.45 23.4l-0.372 0.372c-0.206 0.206-0.206 0.538 0 0.744 0.103 0.103 0.237 0.154 0.372 0.154s0.269-0.052 0.372-0.154l0.372-0.372c0.206-0.206 0.206-0.538 0-0.744s-0.539-0.205-0.744 0z"></path>
<path fill="#674d40" style="fill: var(--color1, #674d40)" d="M24.813 23.401c-0.206-0.206-0.538-0.206-0.744 0s-0.206 0.538 0 0.744l0.372 0.372c0.103 0.103 0.237 0.154 0.372 0.154s0.269-0.052 0.372-0.154c0.206-0.206 0.206-0.538 0-0.744l-0.372-0.372z"></path>
<path fill="#674d40" style="fill: var(--color1, #674d40)" d="M8.822 7.409c-0.206-0.206-0.538-0.206-0.744 0s-0.206 0.538 0 0.744l0.372 0.372c0.103 0.103 0.237 0.154 0.372 0.154s0.269-0.052 0.372-0.154c0.206-0.206 0.206-0.538 0-0.744l-0.372-0.372z"></path>
</symbol>
<symbol id="icon-close" viewBox="0 0 32 32">
<path d="M30.355 32c0.422 0 0.843-0.16 1.163-0.483 0.643-0.643 0.643-1.685 0-2.328l-28.707-28.707c-0.643-0.643-1.685-0.643-2.328 0s-0.643 1.685 0 2.329l28.707 28.706c0.323 0.321 0.744 0.483 1.165 0.483z"></path>
<path d="M1.645 32c0.422 0 0.843-0.16 1.163-0.483l28.709-28.706c0.643-0.643 0.643-1.686 0-2.329s-1.685-0.643-2.329 0l-28.707 28.707c-0.643 0.643-0.643 1.685 0 2.328 0.323 0.321 0.744 0.483 1.163 0.483z"></path>
</symbol>
<symbol id="icon-facebook" viewBox="0 0 19 32">
<path d="M18.558 0.007l-4.15-0.007c-4.662 0-7.675 3.091-7.675 7.875v3.631h-4.172c-0.361 0-0.652 0.292-0.652 0.653v5.261c0 0.361 0.292 0.652 0.652 0.652h4.172v13.275c0 0.361 0.292 0.653 0.652 0.653h5.444c0.361 0 0.652-0.292 0.652-0.653v-13.275h4.878c0.361 0 0.652-0.292 0.652-0.652l0.002-5.261c0-0.173-0.069-0.339-0.191-0.461s-0.289-0.191-0.462-0.191h-4.88v-3.078c0-1.479 0.353-2.231 2.28-2.231l2.795-0.001c0.36 0 0.652-0.292 0.652-0.652v-4.885c0-0.36-0.292-0.652-0.651-0.652z"></path>
</symbol>
<symbol id="icon-instagram" viewBox="0 0 34 32">
<path d="M17.214 32c-0.106 0-0.212 0-0.319-0-2.508 0.006-4.826-0.058-7.080-0.195-2.066-0.126-3.953-0.84-5.455-2.065-1.45-1.182-2.44-2.781-2.942-4.75-0.438-1.715-0.461-3.398-0.483-5.026-0.016-1.168-0.033-2.553-0.036-3.96 0.003-1.414 0.020-2.798 0.036-3.966 0.022-1.628 0.045-3.311 0.483-5.026 0.503-1.97 1.493-3.568 2.942-4.75 1.503-1.225 3.389-1.939 5.456-2.065 2.254-0.137 4.572-0.201 7.086-0.195 2.509-0.005 4.826 0.058 7.080 0.195 2.066 0.126 3.953 0.84 5.455 2.065 1.45 1.182 2.44 2.781 2.943 4.75 0.438 1.715 0.461 3.398 0.483 5.026 0.016 1.168 0.033 2.553 0.036 3.96v0.006c-0.003 1.408-0.020 2.792-0.036 3.96-0.022 1.628-0.045 3.311-0.483 5.026-0.503 1.97-1.492 3.568-2.942 4.75-1.503 1.225-3.389 1.939-5.455 2.065-2.159 0.131-4.376 0.195-6.768 0.195zM16.895 29.5c2.468 0.006 4.733-0.056 6.934-0.19 1.562-0.095 2.917-0.602 4.027-1.507 1.026-0.837 1.732-1.991 2.1-3.431 0.364-1.428 0.385-2.96 0.406-4.442 0.016-1.16 0.032-2.535 0.036-3.929-0.003-1.394-0.020-2.769-0.036-3.929-0.020-1.482-0.041-3.015-0.406-4.443-0.367-1.44-1.074-2.594-2.1-3.431-1.11-0.905-2.465-1.412-4.027-1.507-2.201-0.134-4.467-0.196-6.928-0.19-2.467-0.006-4.733 0.056-6.934 0.19-1.563 0.095-2.917 0.602-4.027 1.507-1.026 0.837-1.732 1.991-2.1 3.431-0.364 1.428-0.385 2.96-0.406 4.443-0.016 1.161-0.033 2.537-0.036 3.932 0.003 1.389 0.020 2.765 0.036 3.926 0.020 1.482 0.041 3.015 0.406 4.442 0.367 1.44 1.074 2.594 2.1 3.431 1.11 0.905 2.465 1.412 4.027 1.507 2.201 0.134 4.467 0.197 6.928 0.191zM16.836 23.812c-4.308 0-7.813-3.505-7.813-7.813s3.505-7.813 7.813-7.813c4.308 0 7.813 3.505 7.813 7.813s-3.505 7.813-7.813 7.813zM16.836 10.687c-2.929 0-5.313 2.383-5.313 5.313s2.383 5.313 5.313 5.313c2.93 0 5.313-2.383 5.313-5.313s-2.383-5.313-5.313-5.313zM25.524 5.687c-1.036 0-1.875 0.839-1.875 1.875s0.839 1.875 1.875 1.875c1.036 0 1.875-0.839 1.875-1.875s-0.839-1.875-1.875-1.875z"></path>
</symbol>
<symbol id="icon-location" viewBox="0 0 23 32">
<path d="M11.733 1.193c6.47 0 11.733 5.264 11.733 11.733 0 2.56-0.809 4.993-2.341 7.034l-8.669 11.676c-0.022 0.028-0.055 0.039-0.079 0.064-0.433 0.464-1.058 0.347-1.367-0.064-2.496-3.331-7.072-9.552-8.832-11.899 0 0-0.001-0.002-0.001-0.003l-0.011-0.014c-1.418-1.992-2.167-4.341-2.167-6.794 0-6.47 5.264-11.733 11.733-11.733zM11.733 19.256c3.483 0 6.33-2.847 6.33-6.33s-2.847-6.33-6.33-6.33c-3.483 0-6.33 2.847-6.33 6.33s2.847 6.33 6.33 6.33z"></path>
</symbol>
<symbol id="icon-logo" viewBox="0 0 71 32">
<path d="M42.261 15.997c0 0.261-0.008 0.521 0 0.783 0.089 2.653-0.736 5.043-2.060 7.296-0.444 0.756-0.868 1.524-1.25 2.314-0.316 0.649-0.754 1.104-1.436 1.37-0.381 0.148-0.734 0.405-1.053 0.669-1.469 1.218-3.136 2.091-4.919 2.705-1.184 0.408-2.403 0.767-3.69 0.751-0.384-0.004-0.768 0.114-1.152 0.115s-0.768-0.124-1.149-0.108c-1.659 0.071-3.196-0.441-4.721-0.979-1.665-0.586-3.136-1.513-4.519-2.617-1.952-1.558-3.343-3.52-4.365-5.765-0.551-1.211-1-2.46-1.127-3.804-0.021-0.223-0.095-0.444-0.16-0.66-0.464-1.507-0.197-2.985 0.090-4.486 0.22-1.148 0.445-2.283 0.873-3.373 1.13-2.884 2.925-5.245 5.411-7.1 2.072-1.545 4.392-2.494 6.913-2.902 2.894-0.468 5.718-0.131 8.459 0.963 1.368 0.548 2.658 1.241 3.785 2.159 1.051 0.856 1.999 1.858 2.895 2.883 0.812 0.928 1.388 2.034 1.903 3.162 0.804 1.762 1.328 3.586 1.274 5.546-0.012 0.362-0.003 0.721-0.004 1.080zM41.151 12.427c-0.080-0.616-0.13-1.329-0.28-2.022-0.427-1.992-1.576-3.548-3.107-4.818-0.869-0.722-1.817-1.349-2.751-1.988-0.316-0.216-0.684-0.415-1.053-0.481-0.95-0.176-1.91-0.34-2.873-0.389-1.671-0.085-3.172-0.518-4.433-1.685-0.929-0.858-1.939-0.941-2.904-0.186-1.094 0.855-2.339 1.357-3.607 1.854-0.93 0.364-1.825 0.823-2.719 1.276-0.747 0.379-1.182 0.971-1.172 1.867 0.006 0.503-0.224 0.923-0.687 1.201-0.387 0.234-0.758 0.492-1.112 0.773-0.989 0.781-1.76 1.661-1.926 3.027-0.132 1.080-0.457 2.148-1.194 3.038-0.246 0.306-0.399 0.677-0.44 1.069-0.068 0.807-0.040 1.625-0.020 2.437 0.006 0.217 0.1 0.45 0.21 0.642 0.255 0.452 0.532 0.891 0.831 1.315 0.724 1.010 1.353 2.046 1.499 3.329 0.141 1.244 0.739 2.257 1.751 3.030 1.466 1.121 2.879 2.311 4.367 3.402 0.8 0.588 1.656 1.102 2.711 1.221s2.089 0.408 3.035 0.941c0.198 0.107 0.416 0.174 0.64 0.197 1.334 0.144 2.57-0.187 3.741-0.814 0.367-0.197 0.746-0.375 1.126-0.546 0.916-0.412 1.931-0.682 2.729-1.255 0.887-0.639 1.836-0.923 2.855-1.101 0.44-0.077 0.8-0.259 1.086-0.588 0.342-0.39 0.658-0.802 1.015-1.179 0.368-0.389 0.634-0.802 0.699-1.356 0.099-0.849 0.461-1.599 0.92-2.319 0.777-1.217 1.219-2.562 1.449-3.992 0.060-0.375 0.095-0.692-0.090-1.023-0.535-0.953-0.317-2.035-0.486-3.049-0.086-0.548 0.112-1.148 0.194-1.832l-0.002 0.001zM34.71 2.909c-0.226-0.251-0.298-0.364-0.4-0.434-0.185-0.128-0.386-0.233-0.583-0.344-1.68-0.95-3.519-1.412-5.399-1.743-0.378-0.067-0.775-0.037-1.16-0.022-0.1 0.004-0.22 0.102-0.284 0.19-0.029 0.040 0.036 0.18 0.092 0.248 0.418 0.5 0.963 0.878 1.578 1.092 1.061 0.383 2.177 0.594 3.304 0.623 0.477 0.013 0.954 0.104 1.429 0.169 0.406 0.058 0.811 0.127 1.421 0.223zM20.441 30.284c-1.127-0.925-2.115-1.752-3.121-2.556-0.833-0.666-1.683-1.309-2.534-1.951-0.096-0.072-0.246-0.070-0.455-0.124 1.025 1.728 4.449 4.354 6.111 4.632zM12.846 8.699c0.68-0.521 1.309-1.070 1.999-1.524 0.968-0.633 1.338-1.421 1.11-2.773-0.687 0.564-1.177 1.244-1.707 1.861-0.56 0.651-0.975 1.426-1.442 2.155-0.036 0.059 0.022 0.175 0.039 0.281zM35.774 28.421c-0.634-0.044-1.273 0.069-1.671 0.412-0.755 0.652-1.653 0.98-2.567 1.306-0.48 0.171-0.932 0.422-1.384 0.661-0.062 0.033-0.074 0.209-0.061 0.313 0.004 0.035 0.174 0.092 0.243 0.069 0.821-0.281 1.668-0.507 2.445-0.882 0.953-0.459 1.847-1.040 2.759-1.579 0.096-0.054 0.146-0.181 0.235-0.299zM11.544 19.382c-0.182 0.54-0.146 0.838-0.032 1.156 0.318 0.882 0.511 1.814 1.084 2.585 0.212 0.286 0.256 0.925 0.648 0.787 0.345-0.12-0.059-0.627-0.082-0.968-0.090-1.304-0.773-2.355-1.618-3.561zM17.696 3.142l0.085 0.129c0.474-0.176 0.952-0.343 1.421-0.532 1.019-0.41 2.036-0.829 3.049-1.254 0.204-0.087 0.391-0.225 0.566-0.366 0.049-0.040 0.040-0.175 0.025-0.258-0.008-0.037-0.104-0.078-0.16-0.080-0.095 0.002-0.189 0.018-0.28 0.047-1.377 0.393-2.676 0.974-3.919 1.68-0.291 0.165-0.527 0.422-0.787 0.636zM41.884 17.147c0.083-0.097 0.148-0.138 0.153-0.183 0.134-1.421-0.016-2.829-0.21-4.233-0.010-0.071-0.107-0.172-0.174-0.18-0.073-0.010-0.187 0.051-0.232 0.117-0.073 0.104-0.118 0.225-0.132 0.352-0.073 1.158 0.003 2.321 0.226 3.46 0.044 0.23 0.234 0.432 0.367 0.668zM11.212 13.227c0.537-0.206 0.618-0.578 0.675-0.915 0.14-0.82 0.491-1.61 0.375-2.477-0.562 1.035-1.060 2.083-1.051 3.392h-0zM24.219 31.234c-1.205-0.535-1.532-0.591-2.604-0.441 0.455 0.173 0.864 0.448 1.275 0.452 0.429 0.006 0.894 0.534 1.329-0.011h-0z"></path>
<path d="M26.704 20.593c-0.824-0.015-1.39-0.361-1.809-1.030-0.39-0.624-1.040-0.947-1.634-1.332-0.75-0.484-1.36-1.031-1.533-2.012-0.12-0.665 0.020-1.244 0.289-1.769 0.226-0.439 0.629-0.847 1.053-1.108 0.459-0.283 0.84-0.55 1.052-1.073 0.24-0.602 0.845-0.638 1.38-0.746 0.504-0.102 1.017-0.167 1.514-0.295 0.68-0.174 1.297-0.12 1.794 0.411 0.384 0.412 0.832 0.708 1.332 0.958 0.52 0.26 0.691 0.564 0.529 1.107-0.111 0.369-0.004 0.62 0.133 0.914 0.15 0.321 0.303 0.647 0.406 0.986 0.342 1.128-0.052 2.077-1.106 2.58-0.653 0.311-1.154 0.726-1.316 1.456-0.065 0.294-0.248 0.461-0.506 0.537-0.521 0.153-1.050 0.28-1.576 0.417zM30.162 15.864c0.017-1.987-1.484-3.576-3.435-3.579-1.751 0-3.512 1.189-3.58 3.469-0.055 1.824 1.459 3.524 3.432 3.53 2.403 0.012 3.536-1.663 3.583-3.42zM23.128 17.764c0-0.255 0.024-0.385-0.004-0.503-0.259-1.079-0.427-2.148 0.16-3.188 0.042-0.075-0.055-0.229-0.088-0.346-0.115 0.037-0.254 0.045-0.341 0.117-0.97 0.799-1.402 2.718 0.273 3.92zM26.73 11.787c0.406 0.149 0.637 0.255 0.88 0.321 0.894 0.237 1.656 0.664 2.187 1.451 0.105 0.155 0.24 0.385 0.44 0.209 0.106-0.094 0.141-0.382 0.080-0.526-0.083-0.191-0.271-0.43-0.451-0.468-0.491-0.103-0.76-0.46-1.080-0.771-0.538-0.519-1.139-0.681-2.055-0.215zM26.674 19.609l-0.012-0.075c-0.258 0-0.517-0.022-0.771 0.009-0.13 0.016-0.249 0.127-0.372 0.195 0.112 0.1 0.21 0.257 0.34 0.29 0.693 0.175 1.391 0.213 2.074-0.055 0.117-0.046 0.247-0.106 0.32-0.201 0.065-0.080 0.086-0.223 0.073-0.331-0.005-0.040-0.167-0.101-0.247-0.088-0.469 0.074-0.936 0.167-1.402 0.254l-0.002 0.001zM30.217 17.571c0.48-0.089 0.694-0.361 0.722-0.779 0.021-0.352 0.016-0.705-0.015-1.056-0.008-0.093-0.136-0.175-0.21-0.263-0.107 0.101-0.323 0.238-0.304 0.299 0.195 0.609-0.212 1.155-0.194 1.798v0.001z"></path>
<path d="M34.606 20.323c-0.028 0.014-0.139 0.108-0.259 0.12-0.11 0.013-0.27-0.024-0.337-0.101-0.341-0.386-0.672-0.783-0.977-1.199-0.080-0.109-0.113-0.401-0.067-0.426 0.15-0.083 0.443-0.17 0.508-0.098 0.386 0.427 0.725 0.897 1.074 1.357 0.034 0.046 0.024 0.125 0.059 0.346z"></path>
<path d="M18.269 23.668c0.178 0.014 0.531 0.025 0.874 0.084 0.086 0.015 0.2 0.183 0.2 0.283s-0.099 0.274-0.184 0.295c-0.668 0.166-1.332 0.207-1.924-0.241-0.033-0.031-0.059-0.070-0.076-0.112s-0.023-0.089-0.018-0.134c0.013-0.067 0.116-0.16 0.186-0.165 0.256-0.022 0.513-0.010 0.942-0.010z"></path>
<path d="M39.197 9.562l0.253 0.139c-0.072 0.129-0.116 0.336-0.22 0.373-0.481 0.177-0.974 0.319-1.476 0.423-0.144 0.028-0.354-0.114-0.487-0.231-0.154-0.136-0.062-0.431 0.132-0.461 0.569-0.088 1.142-0.155 1.799-0.242z"></path>
<path d="M22.198 26.541c0.267 0.125 0.491 0.16 0.6 0.294 0.299 0.372 0.572 0.764 0.819 1.174 0.12 0.195 0.010 0.406-0.192 0.462-0.111 0.031-0.311-0.060-0.393-0.16-0.326-0.394-0.628-0.807-0.905-1.238-0.064-0.102 0.035-0.308 0.071-0.532z"></path>
<path d="M32.679 11.018c0.017-0.114 0-0.244 0.053-0.294 0.072-0.066 0.226-0.12 0.3-0.085 0.101 0.049 0.167 0.182 0.236 0.286 0.194 0.291 0.385 0.584 0.569 0.882 0.082 0.134 0.193 0.276 0.2 0.42 0.008 0.133-0.073 0.306-0.173 0.398-0.056 0.051-0.285 0.018-0.341-0.053-0.37-0.471-0.813-0.913-0.845-1.554z"></path>
<path d="M33.828 6.010c-0.080 0.481-0.112 0.836-0.205 1.175-0.058 0.183-0.17 0.345-0.32 0.465-0.106 0.086-0.291 0.073-0.44 0.105-0.012-0.14-0.056-0.286-0.030-0.419 0.078-0.41 0.182-0.815 0.276-1.222 0.007-0.032 0.005-0.065 0.014-0.096 0.074-0.245 0.233-0.432 0.487-0.331 0.128 0.051 0.188 0.276 0.218 0.323z"></path>
<path d="M26.934 9.141c0.225 0.028 0.515 0.043 0.793 0.111 0.095 0.023 0.235 0.194 0.218 0.268-0.029 0.132-0.138 0.306-0.254 0.345-0.183 0.057-0.379 0.058-0.563 0.003-0.32-0.102-0.618-0.136-0.937-0.002-0.21 0.088-0.406-0.004-0.462-0.214-0.075-0.281 0.136-0.417 0.372-0.456 0.252-0.042 0.512-0.035 0.833-0.054z"></path>
<path d="M31.921 22.97c-0.091 0.398-0.16 0.748-0.258 1.089-0.019 0.067-0.16 0.157-0.219 0.142-0.106-0.026-0.256-0.11-0.278-0.198-0.048-0.189-0.053-0.386-0.016-0.577 0.075-0.35 0.149-0.682 0.008-1.039-0.067-0.171-0.048-0.445 0.211-0.444 0.14 0 0.34 0.173 0.403 0.317 0.102 0.229 0.109 0.499 0.148 0.71z"></path>
<path d="M27.986 22.868c-0.052 0.093-0.077 0.204-0.146 0.251-0.421 0.291-0.843 0.584-1.286 0.838-0.113 0.065-0.312 0.025-0.456-0.018-0.212-0.063-0.256-0.342-0.080-0.455 0.485-0.312 0.972-0.621 1.472-0.908 0.080-0.046 0.24 0.004 0.343 0.055 0.070 0.035 0.1 0.149 0.153 0.237z"></path>
<path d="M22.621 4.155c0.068 0.040 0.197 0.075 0.214 0.139 0.167 0.618 0.328 1.238 0.461 1.864 0.037 0.174-0.192 0.27-0.346 0.167-0.483-0.327-0.785-1.536-0.503-2.042 0.029-0.050 0.1-0.075 0.173-0.128z"></path>
<path d="M28.596 5.911c-0.146-0.098-0.303-0.147-0.324-0.231-0.023-0.091 0.052-0.247 0.134-0.321 0.355-0.318 0.726-0.617 1.112-0.897 0.13-0.092 0.4-0.157 0.5-0.085 0.236 0.166 0.112 0.401-0.052 0.573-0.221 0.231-0.44 0.475-0.694 0.662-0.195 0.141-0.445 0.201-0.675 0.299z"></path>
<path d="M19.403 9.177l-0.354 0.335c-0.101-0.109-0.25-0.201-0.293-0.331-0.17-0.512-0.312-1.033-0.446-1.555-0.018-0.072 0.040-0.219 0.1-0.243 0.098-0.040 0.259-0.056 0.334 0 0.147 0.109 0.314 0.254 0.362 0.418 0.126 0.425 0.192 0.87 0.297 1.377z"></path>
<path d="M15.533 17.757c-0.324 0.596-0.571 1.207-1.175 1.533-0.102 0.055-0.326-0.015-0.435-0.102-0.185-0.147 0-0.27 0.090-0.395 0.284-0.392 0.545-0.8 0.847-1.177 0.078-0.097 0.275-0.144 0.409-0.131 0.091 0.008 0.166 0.164 0.264 0.272z"></path>
<path d="M19.196 17.808c0.169 0.098 0.292 0.128 0.315 0.192 0.038 0.106 0.057 0.272 0 0.346-0.093 0.117-0.252 0.185-0.388 0.263-0.355 0.204-0.705 0.42-1.073 0.594-0.112 0.053-0.316 0.037-0.416-0.034-0.206-0.147-0.134-0.383 0.032-0.487 0.506-0.318 1.039-0.596 1.531-0.873z"></path>
<path d="M37.53 15.106c-0.13 0.295-0.313 0.74-0.531 1.167-0.034 0.066-0.244 0.102-0.333 0.063-0.083-0.037-0.173-0.205-0.156-0.295 0.087-0.475 0.184-0.952 0.33-1.411 0.045-0.14 0.247-0.267 0.403-0.314 0.058-0.017 0.208 0.201 0.28 0.334 0.041 0.075 0.007 0.191 0.007 0.457z"></path>
<path d="M15.431 11.562c0.574 0.517 0.505 1.218 0.569 1.866 0.012 0.12-0.137 0.292-0.256 0.379-0.062 0.046-0.316-0.028-0.322-0.070-0.090-0.654-0.16-1.312-0.216-1.971-0.004-0.056 0.13-0.125 0.225-0.205z"></path>
<path d="M28.841 27.56c0.096 0.026 0.191 0.057 0.284 0.093 0.345 0.16 0.691 0.317 1.028 0.493 0.16 0.083 0.32 0.188 0.435 0.321 0.132 0.154-0.019 0.451-0.204 0.41-0.625-0.136-1.236-0.325-1.704-0.794-0.069-0.069-0.068-0.243-0.045-0.358 0.013-0.065 0.134-0.11 0.207-0.165z"></path>
<path d="M21.229 11.751c0.033 0.104 0.147 0.265 0.107 0.366-0.21 0.536-0.453 1.059-0.701 1.578-0.030 0.064-0.16 0.12-0.237 0.11-0.067-0.008-0.16-0.103-0.178-0.175-0.131-0.579 0.282-1.615 0.743-1.876 0.048-0.027 0.124-0.004 0.265-0.004z"></path>
<path d="M39.113 20.539c-0.072-0.046-0.222-0.102-0.3-0.209-0.031-0.043 0.070-0.239 0.156-0.301 0.385-0.281 0.777-0.549 1.187-0.789 0.11-0.065 0.34-0.069 0.421 0.003 0.075 0.067 0.086 0.321 0.018 0.414-0.343 0.48-0.776 0.846-1.483 0.883z"></path>
<path d="M36.737 24.67c-0.297-0.031-0.426-0.034-0.549-0.062-0.052-0.012-0.13-0.074-0.131-0.114-0.006-0.091 0.018-0.182 0.068-0.259 0.064-0.073 0.147-0.125 0.24-0.15 0.457-0.138 0.915-0.276 1.38-0.388 0.101-0.024 0.313 0.043 0.326 0.1 0.030 0.137-0.006 0.303-0.060 0.441-0.028 0.073-0.142 0.134-0.228 0.16-0.397 0.11-0.797 0.207-1.045 0.272z"></path>
<path d="M22.962 21.355c-0.033 0.14-0.086 0.45-0.189 0.742-0.026 0.073-0.226 0.142-0.318 0.116s-0.2-0.179-0.197-0.274c0.010-0.541 0.036-1.083 0.091-1.622 0.012-0.118 0.16-0.221 0.246-0.331 0.102 0.109 0.268 0.205 0.294 0.329 0.058 0.279 0.046 0.573 0.072 1.039z"></path>
<path d="M44.4 4.422c0-1.146 0.276-2.016 0.829-2.608 0.559-0.598 1.275-0.898 2.148-0.898s1.567 0.258 2.081 0.775c0.521 0.516 0.782 1.342 0.782 2.475s-0.276 1.99-0.829 2.57c-0.553 0.579-1.29 0.869-2.213 0.869-0.797 0-1.45-0.23-1.959-0.69-0.264-0.239-0.471-0.57-0.622-0.992-0.144-0.428-0.217-0.929-0.217-1.502zM47.348 1.012c-0.634 0-1.155 0.283-1.563 0.85-0.402 0.567-0.603 1.398-0.603 2.494s0.192 1.896 0.575 2.4c0.383 0.504 0.892 0.756 1.526 0.756 0.64 0 1.161-0.283 1.563-0.85 0.408-0.573 0.612-1.401 0.612-2.485 0-1.090-0.194-1.89-0.584-2.4-0.383-0.51-0.892-0.765-1.526-0.765z"></path>
<path d="M51.869 7.569h-0.782v-6.614h0.782v3.042h3.061v-3.042h0.782v6.614h-0.782v-3.477h-3.061v3.477z"></path>
<path d="M59.73 7.569h-0.123l0.819-6.614h0.311l1.978 6.113 1.969-6.113h0.311l0.819 6.614h-0.782l-0.65-5.291-1.705 5.291h-0.594l-1.724-5.225-0.631 5.225z"></path>
<path d="M71.032 0.955c0.119 0.12 0.179 0.274 0.179 0.463 0 0.157-0.035 0.318-0.104 0.482l-1.686 3.43v2.239h-0.782v-2.031l-1.884-4.582h0.801l1.799 4.261 1.639-3.316c0.069-0.157 0.104-0.321 0.104-0.491s-0.047-0.302-0.141-0.397l0.075-0.057z"></path>
<path d="M1.328 9.306c0.487-0.022 0.963-0.033 1.427-0.033 0.476 0 0.974 0.050 1.494 0.15 0.531 0.1 1.051 0.289 1.56 0.566 0.52 0.266 0.957 0.616 1.311 1.049 0.365 0.422 0.658 0.982 0.88 1.682s0.332 1.548 0.332 2.547c0 0.999-0.166 1.898-0.498 2.697-0.321 0.788-0.763 1.393-1.328 1.815-1.095 0.821-2.418 1.232-3.967 1.232-0.542 0-1.112-0.022-1.71-0.067h-0.83v-11.638h1.328zM1.378 20.811c0.232 0.022 0.526 0.033 0.88 0.033s0.62-0.006 0.797-0.017c0.177-0.011 0.42-0.055 0.73-0.133 0.31-0.089 0.598-0.205 0.863-0.35s0.542-0.355 0.83-0.633c0.299-0.289 0.553-0.627 0.763-1.016 0.476-0.91 0.714-2.098 0.714-3.563 0-1.043-0.127-1.942-0.382-2.697-0.255-0.766-0.548-1.332-0.88-1.698-0.321-0.366-0.714-0.655-1.178-0.866-0.465-0.222-0.835-0.35-1.112-0.383s-0.598-0.050-0.963-0.050c-0.365 0-0.719 0.017-1.062 0.050v11.321z"></path>
<path d="M44.67 20.944h-0.216v-11.654h0.564l6.905 10.772v-10.772h0.216v11.654h-1.212l-6.258-9.656v9.656z"></path>
<path d="M62.359 9.29h0.216v6.66c0 1.743-0.343 3.025-1.029 3.846-0.686 0.81-1.582 1.215-2.689 1.215-0.697 0-1.289-0.061-1.776-0.183-0.487-0.133-0.946-0.372-1.378-0.716-0.885-0.688-1.328-2.076-1.328-4.162v-6.66h1.378v6.643c0 2.020 0.304 3.369 0.913 4.046 0.31 0.333 0.631 0.561 0.963 0.683 0.343 0.122 0.752 0.183 1.228 0.183 1.062 0 1.909-0.388 2.539-1.165 0.642-0.788 0.963-2.037 0.963-3.746v-6.643z"></path>
<path d="M68.237 20.944h-1.378v-11.488h-2.871v-0.166h7.137v0.166h-2.888v11.488z"></path>
</symbol>
<symbol id="icon-people" viewBox="0 0 35 32">
<path fill="#674d40" style="fill: var(--color1, #674d40)" d="M11.976 0.729c-3.63 0-6.587 2.957-6.587 6.587s2.957 6.587 6.587 6.587c3.63 0 6.587-2.957 6.587-6.587s-2.957-6.587-6.587-6.587zM11.976 12.799c-3.031 0-5.489-2.465-5.489-5.489s2.465-5.489 5.489-5.489c3.031 0 5.489 2.465 5.489 5.489s-2.465 5.489-5.489 5.489z"></path>
<path fill="#674d40" style="fill: var(--color1, #674d40)" d="M25.467 3.463c-2.728 0-4.944 2.216-4.944 4.944s2.216 4.944 4.944 4.944c2.728 0 4.944-2.216 4.944-4.944s-2.216-4.944-4.944-4.944zM25.467 12.26c-2.122 0-3.846-1.724-3.846-3.846s1.724-3.846 3.846-3.846c2.122 0 3.846 1.724 3.846 3.846s-1.724 3.846-3.846 3.846z"></path>
<path fill="#674d40" style="fill: var(--color1, #674d40)" d="M34.31 20.599c-0.498-3.004-2.364-5.537-5.543-6.864 0 0-1.408 1.064-3.3 1.031-2.068-0.040-3.3-1.031-3.3-1.031s-1.536 0.572-2.775 1.765c-1.145-1.017-3.078-1.846-3.078-1.846s-1.771 1.347-4.344 1.327c-2.701-0.020-4.331-1.327-4.331-1.327s-5.84 2.007-7.072 8.817c0 0-1.32 3.61 1.738 9.005h19.351c0 0 1.374-2.391 1.616-3.846h9.625c2.364-3.583 1.414-7.032 1.414-7.032zM20.974 30.378h-17.991c-2.351-4.466-1.334-7.726-1.334-7.726 0.573-3.415 2.768-6.298 5.907-7.759 2.694 1.583 6.15 1.583 8.844 0 3.139 1.462 5.335 4.344 5.907 7.759-0.007 0 0.97 4.014-1.334 7.726zM32.256 26.533h-8.763c0.337-1.94-0.108-4.061-0.108-4.061-0.397-2.398-1.529-4.56-3.186-6.23 0.566-0.512 1.192-0.936 1.879-1.266 2.068 1.185 4.701 1.185 6.769 0 2.324 1.111 3.954 3.26 4.378 5.806 0 0 0.802 2.721-0.97 5.752z"></path>
</symbol>
<symbol id="icon-phone" viewBox="0 0 32 32">
<path d="M29.43 21.003c-1.959 0-3.882-0.306-5.705-0.909-0.893-0.305-1.991-0.025-2.536 0.535l-3.598 2.716c-4.172-2.227-6.743-4.797-8.939-8.938l2.636-3.504c0.685-0.684 0.931-1.683 0.636-2.62-0.605-1.832-0.912-3.755-0.912-5.715 0-1.416-1.152-2.568-2.567-2.568h-5.876c-1.416 0-2.568 1.152-2.568 2.568 0 16.228 13.202 29.43 29.43 29.43 1.416 0 2.568-1.152 2.568-2.568v-5.86c0-1.416-1.152-2.567-2.568-2.567z"></path>
</symbol>
<symbol id="icon-star" viewBox="0 0 34 32">
<path fill="#ab816c" style="fill: var(--color2, #ab816c)" d="M15.24 1.561c0.504-1.552 2.699-1.552 3.204 0l2.558 7.872c0.225 0.694 0.872 1.164 1.602 1.164h8.277c1.632 0 2.31 2.088 0.99 3.047l-6.696 4.865c-0.59 0.429-0.837 1.189-0.612 1.883l2.558 7.872c0.504 1.552-1.272 2.842-2.592 1.883l-6.696-4.865c-0.59-0.429-1.39-0.429-1.98 0l-6.696 4.865c-1.32 0.959-3.096-0.331-2.592-1.883l2.558-7.872c0.225-0.694-0.022-1.454-0.612-1.883l-6.696-4.865c-1.32-0.959-0.642-3.047 0.99-3.047h8.277c0.73 0 1.376-0.47 1.602-1.164l2.558-7.872z"></path>
</symbol>
<symbol id="icon-star-empty" viewBox="0 0 34 32">
<path fill="none" stroke="#ab816c" style="stroke: var(--color1, #ab816c)" stroke-linejoin="miter" stroke-linecap="butt" stroke-miterlimit="4" stroke-width="1.6842" d="M16.041 1.822c0.252-0.776 1.35-0.776 1.602 0l2.558 7.872c0.338 1.041 1.308 1.746 2.403 1.746h8.277c0.816 0 1.155 1.044 0.495 1.523l-6.696 4.865c-0.885 0.643-1.256 1.784-0.918 2.825l2.558 7.872c0.252 0.776-0.636 1.421-1.296 0.941l-6.696-4.865c-0.886-0.643-2.084-0.643-2.97 0l-6.696 4.865c-0.66 0.48-1.548-0.166-1.296-0.941l2.558-7.872c0.338-1.041-0.032-2.181-0.918-2.825l-6.696-4.865c-0.66-0.479-0.321-1.523 0.495-1.523h8.277c1.094 0 2.064-0.705 2.403-1.746l2.558-7.872z"></path>
</symbol>
</defs>
</svg>
